HIERARCHY
ROOT root
{
	OFFSET 0.000000 0.000000 0.000000
	CHANNELS 6 Xposition Yposition Zposition Zrotation Yrotation Xrotation
	JOINT lhip
	{
		OFFSET 0.058581 -0.082280 -0.017664
		CHANNELS 3 Zrotation Yrotation Xrotation
		JOINT lknee
		{
			OFFSET 0.043451 -0.386469 0.008037
			CHANNELS 3 Zrotation Yrotation Xrotation
			JOINT lankle
			{
				OFFSET -0.014790 -0.426874 -0.037428
				CHANNELS 3 Zrotation Yrotation Xrotation
				JOINT ltoe
				{
					OFFSET 0.041054 -0.060286 0.122042
					CHANNELS 3 Zrotation Yrotation Xrotation
					End Site
					{
						OFFSET 0.000000 0.000000 0.000000
					}
				}
			}
		}
	}
	JOINT rhip
	{
		OFFSET -0.060310 -0.090513 -0.013543
		CHANNELS 3 Zrotation Yrotation Xrotation
		JOINT rknee
		{
			OFFSET -0.043257 -0.383688 -0.004843
			CHANNELS 3 Zrotation Yrotation Xrotation
			JOINT rankle
			{
				OFFSET 0.019056 -0.420046 -0.034562
				CHANNELS 3 Zrotation Yrotation Xrotation
				JOINT rtoe
				{
					OFFSET -0.034840 -0.062106 0.130323
					CHANNELS 3 Zrotation Yrotation Xrotation
					End Site
					{
						OFFSET 0.000000 0.000000 0.000000
					}
				}
			}
		}
	}
	JOINT lowerback
	{
		OFFSET 0.004439 0.124404 -0.038385
		CHANNELS 3 Zrotation Yrotation Xrotation
		JOINT upperback
		{
			OFFSET 0.004488 0.137956 0.026820
			CHANNELS 3 Zrotation Yrotation Xrotation
			JOINT chest
			{
				OFFSET -0.002265 0.056032 0.002855
				CHANNELS 3 Zrotation Yrotation Xrotation
				JOINT lowerneck
				{
					OFFSET -0.013390 0.211636 -0.033468
					CHANNELS 3 Zrotation Yrotation Xrotation
					JOINT upperneck
					{
						OFFSET 0.010113 0.088937 0.050410
						CHANNELS 3 Zrotation Yrotation Xrotation
						End Site
						{
							OFFSET 0.000000 0.000000 0.000000
						}
					}
				}
				JOINT lclavicle
				{
					OFFSET 0.071702 0.114000 -0.018898
					CHANNELS 3 Zrotation Yrotation Xrotation
					JOINT lshoulder
					{
						OFFSET 0.122921 0.045205 -0.019046
						CHANNELS 3 Zrotation Yrotation Xrotation
						JOINT lelbow
						{
							OFFSET 0.255332 -0.015649 -0.022946
							CHANNELS 3 Zrotation Yrotation Xrotation
							JOINT lwrist
							{
								OFFSET 0.265709 0.012698 -0.007375
								CHANNELS 3 Zrotation Yrotation Xrotation
								End Site
								{
									OFFSET 0.000000 0.000000 0.000000
								}
							}
						}
					}
				}
				JOINT rclavicle
				{
					OFFSET -0.082954 0.112472 -0.023707
					CHANNELS 3 Zrotation Yrotation Xrotation
					JOINT rshoulder
					{
						OFFSET -0.113228 0.046853 -0.008472
						CHANNELS 3 Zrotation Yrotation Xrotation
						JOINT relbow
						{
							OFFSET -0.260127 -0.014369 -0.031269
							CHANNELS 3 Zrotation Yrotation Xrotation
							JOINT rwrist
							{
								OFFSET -0.269108 0.006794 -0.006027
								CHANNELS 3 Zrotation Yrotation Xrotation
								End Site
								{
									OFFSET 0.000000 0.000000 0.000000
								}
							}
						}
					}
				}
			}
		}
	}
}
MOTION
Frames: 11
Frame Time: 0.033333
0.070511 2.296786 1.012031 -179.003771 4.177526 90.888261 4.319951 -2.679559 -11.482674 -10.172129 -11.031085 23.132393 -0.843259 6.269996 -7.091064 0.000000 -0.000000 0.000000 4.092354 5.054234 -19.682617 7.789019 12.366957 11.126345 17.681997 14.267566 17.524589 0.000000 -0.000000 0.000000 -2.671056 2.739149 17.098344 0.843081 0.756164 -3.088296 1.827460 0.853841 -2.998391 4.926805 17.458387 2.369503 2.115149 15.230363 4.657517 -22.384635 -0.184236 0.496764 -51.800399 -1.940381 6.994193 17.610707 -19.188320 -2.069316 5.260087 -6.600716 2.864722 20.986467 5.083336 4.527505 49.743687 15.411187 13.674320 -12.638879 35.192923 6.993668 2.255086 4.656255 -9.187628 
0.064810 2.285290 1.011258 178.795660 4.033427 91.190674 3.453267 -2.366786 -12.815201 -9.604850 -9.216905 23.359638 0.534933 7.136411 -6.401123 0.000000 -0.000000 0.000000 3.607063 4.176239 -20.700495 8.006320 11.476851 10.318470 19.162016 14.669871 19.204108 0.000000 -0.000000 0.000000 -2.691216 2.756098 17.534691 0.843203 0.300103 -3.417023 1.981408 0.360314 -2.859889 4.199231 16.875370 2.123441 2.319624 15.200839 3.997590 -22.115192 -1.674103 0.369030 -50.420481 -3.930971 6.362205 18.909623 -18.705429 -4.112548 5.151640 -6.535157 3.863033 20.806451 4.759897 4.620060 50.014909 14.499831 13.085331 -13.469455 34.646957 6.039403 3.267578 4.594930 -9.200599 
0.059163 2.273031 1.009886 176.497268 3.892923 91.400928 2.747295 -2.339036 -14.053732 -9.311153 -8.003542 23.639487 1.662635 8.027211 -6.114775 0.000000 -0.000000 0.000000 2.725997 3.531996 -22.463029 8.549111 9.598111 10.822470 21.473545 14.942690 20.413953 0.000000 -0.000000 0.000000 -2.471164 2.919874 18.129264 0.736623 0.125239 -3.688572 2.021776 -0.160142 -2.691585 3.342775 16.499806 1.560730 2.432940 14.919415 2.913070 -21.672194 -2.841609 0.066911 -49.261606 -5.979020 5.798707 20.300035 -18.903404 -6.851485 5.635827 -6.653565 4.124880 20.767087 4.305646 4.451691 50.120271 13.676393 12.633934 -14.098860 34.145764 5.040549 3.984588 4.597513 -8.638595 
0.053557 2.259782 1.008356 174.102478 3.796036 91.598108 2.362062 -2.724692 -15.454858 -9.161457 -6.557729 24.124212 2.463287 8.702557 -6.156499 0.000000 -0.000000 0.000000 1.847453 3.247552 -25.152638 8.845190 6.200099 13.218735 23.355056 13.941250 20.072243 0.000000 -0.000000 0.000000 -2.036831 3.031889 18.892184 0.559480 0.258432 -3.948259 1.864967 -0.621244 -2.595673 2.419955 16.198693 0.605731 2.451836 14.562299 1.468816 -21.100570 -3.551517 -0.191064 -48.454377 -7.884546 5.342654 21.720630 -19.966137 -9.766957 6.351152 -6.916567 3.826934 20.829897 3.810538 4.084631 50.137023 12.993756 12.474152 -14.665311 33.691059 3.990617 4.612944 4.649410 -7.652928 
0.048047 2.245839 1.006927 171.716568 3.792000 91.797377 2.359694 -3.066072 -17.140166 -9.076948 -4.696328 24.915013 2.951944 8.962160 -6.092057 0.000000 -0.000000 0.000000 1.314643 3.335329 -28.185062 8.528272 2.100010 17.385338 23.340881 12.065071 17.792876 0.000000 -0.000000 0.000000 -1.550371 2.885050 19.733582 0.394555 0.534702 -4.268401 1.616504 -0.845835 -2.641656 1.600114 15.884680 -0.539604 2.417606 14.254574 0.147508 -20.680088 -3.894022 -0.358968 -47.892147 -9.156903 4.911594 22.868887 -21.873866 -11.892753 7.101477 -7.366526 3.595797 20.807682 3.575973 3.811373 50.291782 12.441145 12.493929 -15.222767 33.185951 3.043745 4.964299 4.689808 -6.624151 
0.043017 2.232158 1.005982 169.473033 3.849411 91.838214 2.533130 -2.807018 -18.574027 -9.043982 -3.243452 25.449967 3.121640 9.045781 -5.642458 0.000000 -0.000000 0.000000 1.112990 3.340070 -30.476448 7.819885 -1.780332 23.156542 21.078654 9.830683 13.424262 0.000000 -0.000000 0.000000 -1.195684 2.552282 20.461369 0.311466 0.813740 -4.578549 1.404543 -0.831019 -2.800133 1.123608 15.548572 -1.430566 2.365797 13.957495 -0.554689 -20.621637 -4.086720 -0.352820 -47.566993 -9.684468 4.480387 23.507712 -23.889990 -12.667287 7.358883 -7.676572 3.210126 20.732401 3.795591 3.897684 50.632952 11.896566 12.373479 -15.769514 32.594366 2.342468 5.145813 4.643261 -5.810317 
0.038669 2.219472 1.006348 167.460265 3.787450 91.559226 2.512599 -2.367054 -19.087192 -8.920902 -2.408305 25.089987 3.077985 9.297745 -4.857649 0.000000 -0.000000 0.000000 0.744684 2.929624 -31.114609 6.553279 -5.718637 30.310834 16.932291 5.995598 6.849993 0.000000 -0.000000 0.000000 -0.968297 2.309711 20.869586 0.202360 1.067745 -4.767661 1.173186 -0.787829 -2.940921 1.132860 15.085062 -1.814595 2.288672 13.616482 -0.380033 -20.960306 -4.203782 -0.067276 -47.511256 -9.821041 4.213321 23.501677 -25.198158 -12.275460 7.199793 -7.541065 2.243274 20.864112 4.277560 4.102897 51.040617 11.170564 12.288583 -16.169714 31.796204 1.766228 5.199198 4.506163 -5.164895 
0.034833 2.207659 1.008193 165.780737 3.587005 91.038413 2.148856 -2.028616 -18.681997 -8.523586 -2.128117 23.746300 2.966420 9.707217 -3.739113 0.000000 -0.000000 0.000000 -0.032469 1.970452 -29.882383 4.405736 -9.314180 37.919583 12.437586 0.428773 -0.110125 0.000000 -0.000000 0.000000 -0.777297 2.193957 20.838449 0.061465 1.259248 -4.830599 0.875359 -0.701744 -2.978097 1.479275 14.471037 -2.041485 2.413447 13.101910 1.016187 -21.630350 -4.259084 0.530880 -47.827720 -9.822517 4.090869 22.899029 -25.641194 -10.979448 6.822339 -7.182900 1.016751 21.245846 4.618069 4.294009 51.377031 10.296780 12.241069 -16.257211 31.030363 1.552996 5.387657 4.373453 -4.699762 
0.031401 2.195992 1.011070 164.433343 3.399031 90.498245 1.785788 -1.997381 -17.927667 -7.952851 -2.008984 21.839404 2.779258 10.116718 -2.285007 0.000000 -0.000000 0.000000 -1.097359 0.690100 -27.014742 2.280768 -11.114586 44.672509 9.483122 -3.801780 -4.345807 0.000000 -0.000000 0.000000 -0.468263 2.273781 20.340731 -0.032694 1.291431 -4.669186 0.545424 -0.541812 -3.037817 1.785934 13.766676 -2.045857 2.720984 12.417368 2.802549 -22.457791 -4.143287 1.126563 -48.632836 -9.560441 4.234795 21.846608 -25.695496 -9.224487 6.349718 -6.967759 0.270499 21.700226 4.582580 4.434479 51.543978 9.381650 12.144283 -15.840287 30.628212 1.978774 5.824197 4.302007 -4.355093 
0.028611 2.183850 1.013970 163.436965 3.275607 90.091945 1.671271 -2.266317 -17.348073 -7.424659 -1.782890 19.865695 2.502923 10.429407 -0.707460 0.000000 -0.000000 0.000000 -2.210036 -0.407240 -22.930507 1.483064 -10.751323 49.601468 8.574914 -4.601471 -5.693108 0.000000 -0.000000 0.000000 -0.114843 2.628883 19.375757 0.016454 1.112392 -4.198051 0.265181 -0.349007 -3.186375 1.960997 13.085716 -1.477692 2.899772 11.805142 3.904847 -23.221839 -3.743717 1.421790 -49.843188 -8.937615 4.842729 20.292163 -25.758654 -7.122253 5.872535 -6.952816 -0.001312 22.075145 4.156106 4.527809 51.518295 8.504691 12.074284 -14.881668 30.684321 3.034556 6.265558 4.287124 -4.030445 
0.026837 2.170408 1.015931 162.808070 3.101675 89.852464 1.725679 -2.610013 -17.244978 -7.089392 -1.399295 18.274650 2.298507 10.562704 0.641404 0.000000 -0.000000 0.000000 -3.252534 -1.038637 -18.319539 1.946465 -9.176578 52.676411 8.970231 -3.589606 -5.103654 0.000000 -0.000000 0.000000 -0.013026 3.250437 18.068138 0.237712 0.821331 -3.589945 0.080410 -0.188244 -3.289815 2.111147 12.306848 -0.541281 2.823022 11.420392 4.265475 -23.824059 -3.082812 1.496256 -51.051473 -8.184999 5.788340 18.235354 -25.898212 -4.591658 5.436513 -6.987594 -0.203160 22.409898 3.453307 4.496557 51.349270 7.614441 12.244595 -13.704142 31.049426 4.203133 6.495663 4.300852 -3.558979 
